<?xml version="1.0" encoding="UTF-8"?>
<!--Generator: Apple Native CoreSVG 175.5-->
<!DOCTYPE svg
PUBLIC "-//W3C//DTD SVG 1.1//EN"
       "http://www.w3.org/Graphics/SVG/1.1/DTD/svg11.dtd">
<svg version="1.1" xmlns="http://www.w3.org/2000/svg" xmlns:xlink="http://www.w3.org/1999/xlink" width="19.3032" height="25.1724">
 <g>
  <rect height="25.1724" opacity="0" width="19.3032" x="0" y="0"/>
  <path d="M17.3317 8.28403C18.4262 8.28403 19.3032 7.40707 19.3032 6.3098C19.3032 5.21527 18.4262 4.33831 17.3317 4.33831C16.2344 4.33831 15.3547 5.21527 15.3547 6.3098C15.3547 7.40707 16.2344 8.28403 17.3317 8.28403ZM0.942581 10.9457L5.4965 10.9457L8.38635 13.5692C8.46408 13.6415 8.42385 13.7637 8.32111 13.7637L5.00431 13.7637C4.7254 13.7637 4.4465 13.818 4.25548 14.0161L0.864456 17.4239C0.494924 17.7962 0.485158 18.3692 0.864456 18.7485C1.23399 19.118 1.81954 19.104 2.18907 18.7485L5.24415 15.7004L8.96565 16.3126C10.1578 16.5036 11.3723 16.1481 12.234 15.2669L14.3325 13.1641C14.511 12.9856 14.7536 13.086 14.7536 13.3329L14.7536 14.7774L12.2243 17.3137C11.8688 17.6833 11.8715 18.2688 12.2243 18.6383C12.4055 18.8126 12.6453 18.9173 12.8977 18.9173C13.1375 18.9173 13.3774 18.8126 13.5586 18.6383L16.3668 15.8301C16.5383 15.6516 16.6387 15.3993 16.6387 15.1594L16.6387 10.9778C16.6387 10.3754 16.4477 9.89028 16.095 9.53324L10.2418 3.69965L10.2418 6.3559L12.927 9.04105C13.0985 9.21254 13.0817 9.39652 12.927 9.56254L10.4325 12.0598L6.39728 9.21527C6.21877 9.09535 6.07931 9.06059 5.82697 9.06059L0.942581 9.06059C0.421095 9.06059 0 9.48168 0 10.0032C0 10.5149 0.421095 10.9457 0.942581 10.9457ZM11.0055 20.1552C12.2188 20.1552 13.1114 19.3036 13.186 18.1325L12.566 18.1325C12.4844 18.9426 11.8313 19.5282 11.0055 19.5282C10.1473 19.5282 9.44925 18.9712 9.44925 17.9747L9.44925 0.305088C9.44925 0.138676 9.31058 0 9.13713 0C8.97072 0 8.82931 0.138676 8.82931 0.305088L8.82931 17.9747C8.82931 19.3501 9.7387 20.1552 11.0055 20.1552ZM12.8852 25.1626C13.0571 25.1626 13.193 25.0239 13.193 24.8477L13.193 13.9188L12.5731 13.9188L12.5731 24.8477C12.5731 25.0239 12.709 25.1626 12.8852 25.1626Z" fill="#ffffff" fill-opacity="0.85"/>
 </g>
</svg>
